# xmcd
#
# Track frame offsets:
#	151
#	14644
#	34529
#	56312
#	88363
#	107562
#	125525
#	155156
#	186707
#	204360
#
# Disc length: 3073 seconds
#
# Revision: 1
# Processed by: cddbd v1.5.1PL2 Copyright (c) Steve Scherf et al.
# Submitted via: audiograbber 1.83.01
#
DISCID=8b0bff0a
DTITLE=Doghouse Daddies - Doghouse Daddies
DYEAR=2006
DGENRE=Blues
TTITLE0=Sounds Like KC
TTITLE1=Somebody
TTITLE2=Crosseyed Cat
TTITLE3=Early In The Morning
TTITLE4=Rockin Sugar Daddy
TTITLE5=Doghouse Daddy
TTITLE6=Killed Somebody
TTITLE7=I've Got News For You
TTITLE8=Mary Had A Little Lamb
TTITLE9=Sloppy Drunk
EXTD=
EXTT0=
EXTT1=
EXTT2=
EXTT3=
EXTT4=
EXTT5=
EXTT6=
EXTT7=
EXTT8=
EXTT9=
PLAYORDER=
